Coordinates
version=1
nRows=26
nColumns=24
inDegrees=yes

Units are S.I. units (second, meters, Newtons, ...)
Angles are in degrees.

endheader
time	pelvis_tilt	pelvis_list	pelvis_rotation	pelvis_tx	pelvis_ty	pelvis_tz	hip_flexion_r	hip_adduction_r	hip_rotation_r	knee_angle_r	ankle_angle_r	subtalar_angle_r	mtp_angle_r	hip_flexion_l	hip_adduction_l	hip_rotation_l	knee_angle_l	ankle_angle_l	subtalar_angle_l	mtp_angle_l	lumbar_extension	lumbar_bending	lumbar_rotation
      0.41300000	     -2.61163738	      0.93598374	      4.30425284	     -0.75306811	      0.89921853	      0.30269443	     31.69765328	      0.13740168	     -5.77119952	    -24.07365619	      3.31090311	      2.14040989	      3.45107682	    -14.52126937	      1.76864645	      1.22027533	     -6.11903878	     12.58384255	     -1.10325993	      7.23081163	     -7.07064976	     -2.40667671	     -9.32876722
      0.41716667	     -2.68687633	      0.95935909	      4.51207378	     -0.74722821	      0.89795708	      0.30279746	     31.64265477	      0.15844968	     -5.53777209	    -24.01411763	      3.42342548	      2.11479661	      3.41345479	    -14.38478438	      1.67588275	      1.24175843	     -7.05804573	     12.92996683	     -0.70005635	      7.31658960	     -6.95542680	     -2.42362802	     -9.43960876
      0.42133333	     -2.73866542	      0.97224178	      4.70427373	     -0.74138107	      0.89673475	      0.30292572	     31.57207813	      0.20095745	     -5.31432371	    -24.06458045	      3.53357179	      2.02501627	      3.38332249	    -14.23480054	      1.57097403	      1.22034215	     -8.08117075	     13.22971482	     -0.29984987	      7.46587886	     -6.88555422	     -2.40252797	     -9.51783829
      0.42550000	     -2.78264934	      0.97577928	      4.89827455	     -0.73551198	      0.89556353	      0.30309110	     31.47544763	      0.26169535	     -5.09822437	    -24.16404675	      3.63108606	      1.88925090	      3.36416695	    -14.05911384	      1.44944478	      1.19854922	     -9.17282057	     13.53688790	      0.13474569	      7.73640372	     -6.81501435	     -2.39324994	     -9.58211427
      0.42966667	     -2.89423571	      0.99094477	      5.10131335	     -0.72966694	      0.89432963	      0.30325926	     31.45967373	      0.30309163	     -4.90537966	    -24.35082890	      3.65137739	      1.71058139	      3.36730577	    -13.76089696	      1.34999292	      1.24138254	    -10.35860211	     13.75081471	      0.40431978	      7.94954776	     -6.65690318	     -2.40242782	     -9.62088863
      0.43383333	     -2.98440422	      0.98762800	      5.29611686	     -0.72380909	      0.89315116	      0.30346779	     31.41805810	      0.37446422	     -4.72880639	    -24.60011709	      3.67430458	      1.47077781	      3.38597220	    -13.43321218	      1.22285070	      1.22269253	    -11.65580392	     13.97803546	      0.78087213	      8.22711734	     -6.53031368	     -2.38395405	     -9.65856691
      0.43800000	     -3.02123480	      0.95360101	      5.48107393	     -0.71791947	      0.89207579	      0.30374563	     31.30763449	      0.49747678	     -4.55931758	    -24.88478136	      3.72464881	      1.15786345	      3.44480730	    -13.11476801	      1.04321114	      1.10062045	    -13.04661720	     14.21664779	      1.31295921	      8.80736003	     -6.47306969	     -2.32664806	     -9.68465047
      0.44216667	     -3.15895549	      0.95342448	      5.66549607	     -0.71208120	      0.89090659	      0.30400798	     31.32586378	      0.57401079	     -4.40629669	    -25.25112194	      3.67716173	      0.83797383	      3.48551605	    -12.65402535	      0.93283299	      1.14436325	    -14.49641626	     14.27101989	      1.47211929	      9.14732056	     -6.27798343	     -2.32866025	     -9.66614784
      0.44633333	     -3.26077707	      0.92283019	      5.84245914	     -0.70622527	      0.88981870	      0.30432253	     31.30020191	      0.69411896	     -4.26962213	    -25.65016313	      3.66960024	      0.47019958	      3.53753007	    -12.17628475	      0.77532549	      1.10889501	    -16.05368432	     14.35553802	      1.77575397	      9.53157647	     -6.13366996	     -2.29146856	     -9.63784581
      0.45050000	     -3.30742195	      0.84666560	      6.00481332	     -0.70033656	      0.88885266	      0.30471137	     31.20554343	      0.88516006	     -4.13255103	    -26.05921394	      3.64869346	     -0.02891934	      4.25873267	    -11.71208080	      0.54969973	      0.99525923	    -17.68033755	     14.31669248	      2.08082267	     14.71616380	     -6.05816254	     -2.17262805	     -9.54950709
      0.45466667	     -3.42206952	      0.82108771	      6.16802409	     -0.69451123	      0.88782519	      0.30506190	     31.22125317	      1.00096193	     -4.04019489	    -26.57810161	      3.70665936	     -0.36991608	      4.26374433	    -11.12975011	      0.40882340	      1.00181147	    -19.39571167	     14.22995116	      2.23544343	     14.79450281	     -5.89693734	     -2.14807641	     -9.52125982
      0.45883333	     -3.51890611	      0.75908647	      6.31801222	     -0.68868190	      0.88686565	      0.30546812	     31.21362523	      1.17087679	     -3.93377560	    -27.10331430	      3.76263046	     -0.81190432	      4.27690215	    -10.51053669	      0.21987523	      0.95541607	    -21.20674904	     14.09077951	      2.44581600	     14.94573138	     -5.75830938	     -2.07266453	     -9.44556997
      0.46300000	     -3.57815208	      0.66279371	      6.44986809	     -0.68284134	      0.88598806	      0.30593712	     31.17197963	      1.39346136	     -3.82642947	    -27.65716105	      3.87620972	     -1.31942249	      4.30863621	     -9.87693558	     -0.02477766	      0.82755366	    -23.10721490	     13.87609007	      2.76604417	     15.31225804	     -5.66541431	     -1.92772659	     -9.35401932
      0.46716667	     -3.62063300	      0.51189779	      6.58038636	     -0.67699910	      0.88520619	      0.30643134	     31.08912258	      1.67526400	     -3.74047270	    -28.15910598	      3.97371132	     -1.79515445	      4.38964479	     -9.19570064	     -0.33583830	      0.68713510	    -25.10790661	     13.64920773	      3.01413675	     16.47899804	     -5.57526588	     -1.73885668	     -9.23007100
      0.47133333	     -3.73130831	      0.47562391	      6.69212786	     -0.67126154	      0.88435121	      0.30685336	     31.15610415	      1.81723876	     -3.65271629	    -28.85107952	      4.18926502	     -2.18717408	      4.40708123	     -8.44089227	     -0.46237355	      0.73605792	    -27.08987247	     13.15384290	      2.91605982	     16.74781505	     -5.43000669	     -1.68810220	     -9.09146688
      0.47550000	     -3.76984649	      0.33836152	      6.79929942	     -0.66547601	      0.88366396	      0.30735943	     31.09723686	      2.08972906	     -3.54877701	    -29.43336003	      4.42449805	     -2.65756509	      4.48030288	     -7.68744823	     -0.74322290	      0.64837556	    -29.17643894	     12.59803968	      2.90964542	     21.05260849	     -5.35068864	     -1.52375398	     -8.94147204
      0.47966667	     -3.82040572	      0.21854871	      6.89763152	     -0.65973279	      0.88298874	      0.30782300	     31.07976131	      2.32567228	     -3.48676079	    -30.08421383	      4.73478293	     -2.97366668	      4.48291414	     -6.88359326	     -0.98689021	      0.60565741	    -31.31766926	     11.98628454	      2.88245405	     21.09965764	     -5.25904434	     -1.36951056	     -8.78011545
      0.48383333	     -3.84409568	      0.06917184	      6.98075138	     -0.65400410	      0.88239270	      0.30831222	     31.02652905	      2.60533920	     -3.40503524	    -30.71458693	      5.06718896	     -3.33803310	      4.47723038	     -6.06531364	     -1.27094729	      0.53226230	    -33.50903133	     11.30654193	      2.85191491	     21.18743632	     -5.19946269	     -1.17251935	     -8.60506308
      0.48800000	     -3.84229163	     -0.10130971	      7.05424233	     -0.64829039	      0.88187032	      0.30880290	     30.94101283	      2.91077662	     -3.32410474	    -31.33277655	      5.43232616	     -3.69032922	      4.46139601	     -5.23614261	     -1.58501913	      0.44082789	    -35.73729409	     10.53342420	      2.79587959	     21.30856820	     -5.16904657	     -0.94168016	     -8.41951941
      0.49216667	     -3.81860304	     -0.29114964	      7.11880543	     -0.64259371	      0.88142562	      0.30929575	     30.82172015	      3.23880347	     -3.24699298	    -31.92534763	      5.82828825	     -4.01621707	      4.43498400	     -4.39300661	     -1.92609440	      0.34092227	    -37.99141134	      9.67917954	      2.70707137	     21.45189204	     -5.16446580	     -0.68394886	     -8.22358855
      0.49633333	     -3.76221012	     -0.49909698	      7.17444657	     -0.63691188	      0.88106379	      0.30981794	     30.65358588	      3.60117731	     -3.14795288	    -32.48488408	      6.25430247	     -4.42558125	      4.33897192	     -3.55574547	     -2.30026613	      0.22669570	    -40.25986332	      8.79126815	      2.65772619	     21.79734396	     -5.19900101	     -0.40846030	     -7.98142614
      0.50050000	     -3.65911279	     -0.71074195	      7.21146984	     -0.63122871	      0.88084431	      0.31027431	     30.41601159	      3.95884668	     -3.08022330	    -33.00802316	      6.75681018	     -4.58144008	      4.32055208	     -2.76606819	     -2.66452135	      0.13580484	    -42.48528049	      7.74630141	      2.40165315	     21.87319772	     -5.29051368	     -0.08344398	     -7.82490388
      0.50466667	     -3.59862482	     -0.96329790	      7.24940400	     -0.62560477	      0.88055146	      0.31076371	     30.22305695	      4.35471904	     -3.02901696	    -33.49697252	      7.13503919	     -4.85995263	      4.24848498	     -1.86887461	     -3.09649166	     -0.01081201	    -44.77997943	      6.74273977	      2.21952924	     22.03065493	     -5.31926643	      0.25162449	     -7.57181496
      0.50883333	     -3.47759670	     -1.21616839	      7.27409654	     -0.61996823	      0.88042250	      0.31124793	     29.92895136	      4.75983467	     -2.97786834	    -33.91688526	      7.60214344	     -5.06673348	      4.18425074	     -1.03958484	     -3.53643585	     -0.15738450	    -47.01418132	      5.68110658	      1.96978901	     22.13219709	     -5.42133259	      0.60072508	     -7.34817719
      0.51300000	     -3.35161706	     -1.48657026	      7.29292835	     -0.61436687	      0.88033769	      0.31173100	     29.60967732	      5.18623991	     -2.92208306	    -34.28311560	      8.05216042	     -5.28714747	      4.09600175	     -0.19385415	     -4.00183988	     -0.30734796	    -49.23221241	      4.60548138	      1.70599738	     22.21442697	     -5.53039446	      0.98584232	     -7.09537715
      0.51716667	     -3.20762901	     -1.75974034	      7.30174704	     -0.60878755	      0.88033047	      0.31220515	     29.24754913	      5.61416363	     -2.88032716	    -34.59710982	      8.52041024	     -5.43856525	      4.02345737	      0.63993737	     -4.47480775	     -0.46360669	    -51.40453961	      3.54011328	      1.39652486	     22.23417317	     -5.66184121	      1.35504369	     -6.86612663
